<svg xmlns="http://www.w3.org/2000/svg" viewBox="0 0 302.56 302.56"><defs><style>.cls-1{fill:#e2ddd5;}.cls-2{fill:#1f3a22;}</style></defs><g id="Layer_2" data-name="Layer 2"><g id="Layer_1_copy" data-name="Layer 1 copy"><circle class="cls-1" cx="151.28" cy="151.28" r="151.28"/><circle class="cls-2" cx="151.28" cy="150.28" r="118.47"/><path class="cls-1" d="M58.06,153.67a8.73,8.73,0,0,1-1.38,5.08,9.91,9.91,0,0,1-3.57,3.14,16.66,16.66,0,0,1-4.85,1.59,31.87,31.87,0,0,1-5.3.45H20.37v-1.26a2.91,2.91,0,0,0,1.37-.63,2.22,2.22,0,0,0,.35-1.44v-30a2.07,2.07,0,0,0-.35-1.38,2.81,2.81,0,0,0-1.37-.64v-1.26H43.21a22.68,22.68,0,0,1,4.6.48A14.11,14.11,0,0,1,52,129.4a9.06,9.06,0,0,1,3.1,2.9,8,8,0,0,1,1.22,4.55,9,9,0,0,1-1.06,4.4,8.86,8.86,0,0,1-3.39,3.28v.3a8.77,8.77,0,0,1,2.4,1.22,8.25,8.25,0,0,1,2,1.94,9.22,9.22,0,0,1,1.31,2.58A9.73,9.73,0,0,1,58.06,153.67Zm-9.85-16.32a3.15,3.15,0,0,0-1.72-3.13,12.06,12.06,0,0,0-4.8-.76H30.12v8.29h13a6.38,6.38,0,0,0,3.84-1A3.71,3.71,0,0,0,48.21,137.35Zm1,15.52a4.66,4.66,0,0,0-.58-2.68A4.26,4.26,0,0,0,47,148.62a7.24,7.24,0,0,0-2.4-.73,19.89,19.89,0,0,0-2.65-.18H30.12v10H40.78a27.7,27.7,0,0,0,2.83-.15,9.66,9.66,0,0,0,2.68-.66,5.26,5.26,0,0,0,2-1.47A4.32,4.32,0,0,0,49.22,152.87Z"/><path class="cls-1" d="M43,169.43H14.87V158.38l1.72-.43V133.34l-1.66-.42-.06-5.57v-5.5H43.21a28.61,28.61,0,0,1,5.71.59,19.76,19.76,0,0,1,5.84,2.19,14.6,14.6,0,0,1,5,4.62,13.42,13.42,0,0,1,2.14,7.6,14.43,14.43,0,0,1-1.75,7.06l0,0c.22.26.43.52.63.8a14.76,14.76,0,0,1,2.09,4.09,15.19,15.19,0,0,1,.76,4.84,14,14,0,0,1-2.37,8.22,15.27,15.27,0,0,1-5.53,4.87,21.86,21.86,0,0,1-6.48,2.14A37.49,37.49,0,0,1,43,169.43Z"/><path class="cls-1" d="M75.65,155.75l-1.47,4c-.77,1.61-.37,2.57,1.22,2.88v1.26H62.86v-1.26A3.73,3.73,0,0,0,65,161.28a13.88,13.88,0,0,0,1.31-2.2l11.52-27.69a2.89,2.89,0,0,0,.28-.81,1.59,1.59,0,0,0-.05-.78,1.46,1.46,0,0,0-.53-.68,3.61,3.61,0,0,0-1.16-.51v-1.26H94.34v1.26a3.41,3.41,0,0,0-1.26.53,1.44,1.44,0,0,0-.51.71,1.84,1.84,0,0,0,0,.81,3.62,3.62,0,0,0,.31.83l11.47,27.59a13.17,13.17,0,0,0,1.31,2.2,3.73,3.73,0,0,0,2.17,1.39v1.26H95.3v-1.26a2.25,2.25,0,0,0,1.57-.94,2.09,2.09,0,0,0-.2-1.94l-1.57-4Zm10.86-22.13H84.19l-6.42,16.57H93Z"/><path class="cls-1" d="M113.33,169.43H89.8v-8.18H80.9v8.18H57.36V158.37l3.61-.9c.13-.21.25-.43.36-.65l9.94-23.88-.35-.1v-11H99.84V133l-.36.08,9.88,23.77c.11.22.23.44.36.65l3.61.9Z"/><path class="cls-1" d="M153.56,163.93H140.12v-1.26a2.8,2.8,0,0,0,.91-.36.86.86,0,0,0,.4-.8,1.75,1.75,0,0,0-.25-.86,6.35,6.35,0,0,0-.56-.86l-7.47-10.06h-9.5v10.92A1.94,1.94,0,0,0,124,162a3.05,3.05,0,0,0,1.39.63v1.26H113.9v-1.26a2.91,2.91,0,0,0,1.36-.63,2.12,2.12,0,0,0,.35-1.39v-30a2.07,2.07,0,0,0-.35-1.38,2.81,2.81,0,0,0-1.36-.64v-1.26h22.38a30.55,30.55,0,0,1,5.25.46,16.2,16.2,0,0,1,4.88,1.61,10,10,0,0,1,3.61,3.24,9.13,9.13,0,0,1,1.41,5.25,11.35,11.35,0,0,1-.73,4.22,9.88,9.88,0,0,1-2,3.21,11.15,11.15,0,0,1-3.16,2.27,18.53,18.53,0,0,1-4,1.42L149,159.18a11.19,11.19,0,0,0,2,2.17,7.51,7.51,0,0,0,2.53,1.32Zm-9.8-25.46a3.87,3.87,0,0,0-1-2.86,5.78,5.78,0,0,0-2.45-1.44,11.71,11.71,0,0,0-3.13-.5c-1.11,0-2.11,0-3,0H123.65v10h10.81c.91,0,1.91,0,3-.1a10.8,10.8,0,0,0,3-.61,5.58,5.58,0,0,0,2.32-1.56A4.31,4.31,0,0,0,143.76,138.47Z"/><path class="cls-1" d="M159.06,169.43H134.62v-8.5l-4.24-5.7h-1.23v2.7l1.7.43.07,5.57v5.5H108.4V158.38l1.71-.43V133.34l-1.66-.42,0-5.57v-5.5h27.88a37.27,37.27,0,0,1,6.17.53,21.66,21.66,0,0,1,6.53,2.18,15.38,15.38,0,0,1,5.58,5,14.5,14.5,0,0,1,2.37,8.36,16.75,16.75,0,0,1-1.12,6.25,15.22,15.22,0,0,1-3.19,5,15.94,15.94,0,0,1-2.59,2.17l3.4,4.59a5.61,5.61,0,0,0,1.06,1.16,2.07,2.07,0,0,0,.7.35l3.87,1.2Z"/><path class="cls-1" d="M199.59,163.93H188.17v-1.26a3,3,0,0,0,1.31-.61,2.1,2.1,0,0,0,.35-1.46V148.72h-20V160.6a2.14,2.14,0,0,0,.33,1.41,3.06,3.06,0,0,0,1.39.66v1.26H160.13v-1.26a3.18,3.18,0,0,0,1.39-.66,2.22,2.22,0,0,0,.32-1.41v-30a2.21,2.21,0,0,0-.32-1.38,2.71,2.71,0,0,0-1.39-.64v-1.26H171.6v1.26a2.72,2.72,0,0,0-1.37.66,2.06,2.06,0,0,0-.35,1.36v11.63h20V130.63a2.33,2.33,0,0,0-.3-1.41,2.77,2.77,0,0,0-1.36-.61v-1.26h11.42v1.26a2.59,2.59,0,0,0-1.34.64,2.14,2.14,0,0,0-.33,1.38v30a2.57,2.57,0,0,0,.28,1.41,2.3,2.3,0,0,0,1.39.66Z"/><polygon class="cls-1" points="205.09 169.43 182.67 169.43 182.67 158.43 184.34 157.99 184.34 154.22 175.38 154.22 175.38 158.03 177.09 158.52 177.09 169.43 154.63 169.43 154.63 158.52 156.34 158.03 156.34 133.37 154.7 132.97 154.63 127.35 154.63 121.85 177.09 121.85 177.09 132.91 175.38 133.34 175.38 136.76 184.34 136.76 184.34 133.35 182.76 132.98 182.67 127.35 182.67 121.85 205.09 121.85 205.09 132.91 203.42 133.32 203.42 157.9 205.03 158.27 205.09 163.93 205.09 169.43"/><path class="cls-1" d="M251.48,145.64a17.94,17.94,0,0,1-1.82,8.16,18.84,18.84,0,0,1-4.9,6.14,22.5,22.5,0,0,1-7.08,3.87,26.09,26.09,0,0,1-8.33,1.33,25.25,25.25,0,0,1-8.27-1.36,21.57,21.57,0,0,1-7-3.92,19.35,19.35,0,0,1-4.85-6.13,19,19,0,0,1,0-16.32,18.46,18.46,0,0,1,5-6.14,22.64,22.64,0,0,1,7.17-3.82,27.34,27.34,0,0,1,8.44-1.31,24.13,24.13,0,0,1,8.16,1.39,21.55,21.55,0,0,1,6.9,3.94,19.1,19.1,0,0,1,4.75,6.16A18,18,0,0,1,251.48,145.64Zm-7.63,0a12.93,12.93,0,0,0-1.14-5.46,12.77,12.77,0,0,0-3.11-4.24,14.09,14.09,0,0,0-4.6-2.75,15.87,15.87,0,0,0-5.65-1,15.62,15.62,0,0,0-5.59,1,14.06,14.06,0,0,0-4.55,2.75,12.75,12.75,0,0,0-3.05,4.24,13.22,13.22,0,0,0-1.11,5.46,12.9,12.9,0,0,0,4.16,9.68,14.13,14.13,0,0,0,4.55,2.78,15.83,15.83,0,0,0,5.59,1,16.09,16.09,0,0,0,5.65-1,14.28,14.28,0,0,0,4.6-2.76,12.79,12.79,0,0,0,4.25-9.7Z"/><path class="cls-1" d="M229.35,170.64a30.88,30.88,0,0,1-10-1.66,27.31,27.31,0,0,1-8.75-4.91,25,25,0,0,1-6.22-7.86,24.46,24.46,0,0,1,.07-21.32,24.14,24.14,0,0,1,6.46-7.92,28.2,28.2,0,0,1,8.9-4.75,31.83,31.83,0,0,1,20.14.12,27.2,27.2,0,0,1,8.63,5,24.54,24.54,0,0,1,6.12,7.92A23.6,23.6,0,0,1,257,145.64a23.34,23.34,0,0,1-2.41,10.63,24.07,24.07,0,0,1-6.33,7.92,27.63,27.63,0,0,1-8.81,4.83A31.62,31.62,0,0,1,229.35,170.64Zm0-32.94a10.19,10.19,0,0,0-3.64.63,8.53,8.53,0,0,0-2.8,1.68,7.33,7.33,0,0,0-1.74,2.43,7.71,7.71,0,0,0-.62,3.2,7.37,7.37,0,0,0,2.39,5.63,8.39,8.39,0,0,0,2.77,1.68,10.19,10.19,0,0,0,3.64.63,10.6,10.6,0,0,0,3.72-.63,8.94,8.94,0,0,0,2.86-1.7,7.61,7.61,0,0,0,0-11.22,8.74,8.74,0,0,0-2.86-1.69A10.38,10.38,0,0,0,229.35,137.7Z"/><path class="cls-1" d="M296.7,138.42a10.83,10.83,0,0,1-1,4.67,10.45,10.45,0,0,1-2.8,3.61,13,13,0,0,1-4.42,2.35,19,19,0,0,1-5.84.83H269.06v10.77a2.07,2.07,0,0,0,.35,1.41,3,3,0,0,0,1.37.61v1.26H259.31v-1.26a4,4,0,0,0,1.29-.51c.28-.2.43-.72.43-1.56v-30a2.56,2.56,0,0,0-.28-1.36,2.45,2.45,0,0,0-1.44-.66v-1.26h22.38a23.69,23.69,0,0,1,6.37.78,14.44,14.44,0,0,1,4.7,2.23,9.86,9.86,0,0,1,2.93,3.48A10.27,10.27,0,0,1,296.7,138.42Zm-7.68.05a4.07,4.07,0,0,0-2.18-3.74c-1.44-.84-3.89-1.27-7.32-1.27H269.06v10.21h10.76q4.76,0,7-1.36A4.27,4.27,0,0,0,289,138.47Z"/><path class="cls-1" d="M276.28,169.43H253.81V158.31l1.71-.4V133.42l-1.64-.36-.08-5.71v-5.5h27.88a29,29,0,0,1,7.86,1,19.44,19.44,0,0,1,6.5,3.12,15.15,15.15,0,0,1,4.57,5.45,15.78,15.78,0,0,1,1.58,7,16.37,16.37,0,0,1-1.51,7,16,16,0,0,1-4.26,5.5,18.59,18.59,0,0,1-6.27,3.36,24.55,24.55,0,0,1-7.51,1.1h-8.09v2.55l1.63.41.09,5.58Zm7.24-31Z"/><path class="cls-2" d="M58.06,153.67a8.73,8.73,0,0,1-1.38,5.08,9.91,9.91,0,0,1-3.57,3.14,16.66,16.66,0,0,1-4.85,1.59,31.87,31.87,0,0,1-5.3.45H20.37v-1.26a2.91,2.91,0,0,0,1.37-.63,2.22,2.22,0,0,0,.35-1.44v-30a2.07,2.07,0,0,0-.35-1.38,2.81,2.81,0,0,0-1.37-.64v-1.26H43.21a22.68,22.68,0,0,1,4.6.48A14.11,14.11,0,0,1,52,129.4a9.06,9.06,0,0,1,3.1,2.9,8,8,0,0,1,1.22,4.55,9,9,0,0,1-1.06,4.4,8.86,8.86,0,0,1-3.39,3.28v.3a8.77,8.77,0,0,1,2.4,1.22,8.25,8.25,0,0,1,2,1.94,9.22,9.22,0,0,1,1.31,2.58A9.73,9.73,0,0,1,58.06,153.67Zm-9.85-16.32a3.15,3.15,0,0,0-1.72-3.13,12.06,12.06,0,0,0-4.8-.76H30.12v8.29h13a6.38,6.38,0,0,0,3.84-1A3.71,3.71,0,0,0,48.21,137.35Zm1,15.52a4.66,4.66,0,0,0-.58-2.68A4.26,4.26,0,0,0,47,148.62a7.24,7.24,0,0,0-2.4-.73,19.89,19.89,0,0,0-2.65-.18H30.12v10H40.78a27.7,27.7,0,0,0,2.83-.15,9.66,9.66,0,0,0,2.68-.66,5.26,5.26,0,0,0,2-1.47A4.32,4.32,0,0,0,49.22,152.87Z"/><path class="cls-2" d="M75.65,155.75l-1.47,4q-1.16,2.42,1.21,2.88v1.26H62.86v-1.26A3.73,3.73,0,0,0,65,161.28a13.88,13.88,0,0,0,1.31-2.2l11.52-27.69a3.25,3.25,0,0,0,.28-.81,1.59,1.59,0,0,0-.05-.78,1.46,1.46,0,0,0-.53-.68,3.61,3.61,0,0,0-1.16-.51v-1.26H94.34v1.26a3.41,3.41,0,0,0-1.26.53,1.44,1.44,0,0,0-.51.71,1.84,1.84,0,0,0,0,.81,3.62,3.62,0,0,0,.31.83l11.47,27.59a13.17,13.17,0,0,0,1.31,2.2,3.7,3.7,0,0,0,2.17,1.39v1.26H95.3v-1.26a2.25,2.25,0,0,0,1.57-.94,2.09,2.09,0,0,0-.2-1.94l-1.57-4Zm10.86-22.13H84.19l-6.42,16.57H93Z"/><path class="cls-2" d="M153.56,163.93H140.12v-1.26a2.8,2.8,0,0,0,.91-.36.86.86,0,0,0,.4-.8,1.75,1.75,0,0,0-.25-.86,7.48,7.48,0,0,0-.56-.86l-7.48-10.06h-9.49v10.92A1.94,1.94,0,0,0,124,162a3.06,3.06,0,0,0,1.38.63v1.26H113.89v-1.26a2.91,2.91,0,0,0,1.37-.63,2.12,2.12,0,0,0,.35-1.39v-30a2.07,2.07,0,0,0-.35-1.38,2.81,2.81,0,0,0-1.37-.64v-1.26h22.39a30.55,30.55,0,0,1,5.25.46,16.2,16.2,0,0,1,4.88,1.61,10,10,0,0,1,3.61,3.24,9.13,9.13,0,0,1,1.41,5.25,11.35,11.35,0,0,1-.73,4.22,9.88,9.88,0,0,1-2,3.21,11.15,11.15,0,0,1-3.16,2.27,18.53,18.53,0,0,1-4,1.42L149,159.18a11.19,11.19,0,0,0,2,2.17,7.51,7.51,0,0,0,2.53,1.32Zm-9.81-25.46a3.86,3.86,0,0,0-1-2.86,5.78,5.78,0,0,0-2.45-1.44,11.71,11.71,0,0,0-3.13-.5c-1.11,0-2.11,0-3,0H123.65v10h10.81c.91,0,1.91,0,3-.1a10.8,10.8,0,0,0,3-.61,5.58,5.58,0,0,0,2.32-1.56A4.31,4.31,0,0,0,143.75,138.47Z"/><path class="cls-2" d="M199.59,163.93H188.17v-1.26a3,3,0,0,0,1.31-.61,2.1,2.1,0,0,0,.35-1.46V148.72h-20V160.6a2.14,2.14,0,0,0,.33,1.41,3.06,3.06,0,0,0,1.39.66v1.26H160.13v-1.26a3.18,3.18,0,0,0,1.39-.66,2.22,2.22,0,0,0,.32-1.41v-30a2.21,2.21,0,0,0-.32-1.38,2.71,2.71,0,0,0-1.39-.64v-1.26H171.6v1.26a2.72,2.72,0,0,0-1.37.66,2.06,2.06,0,0,0-.35,1.36v11.63h20V130.63a2.33,2.33,0,0,0-.3-1.41,2.77,2.77,0,0,0-1.36-.61v-1.26h11.42v1.26a2.59,2.59,0,0,0-1.34.64,2.14,2.14,0,0,0-.33,1.38v30a2.57,2.57,0,0,0,.28,1.41,2.3,2.3,0,0,0,1.39.66Z"/><path class="cls-2" d="M251.48,145.64a17.94,17.94,0,0,1-1.82,8.16,18.84,18.84,0,0,1-4.9,6.14,22.5,22.5,0,0,1-7.08,3.87,26.09,26.09,0,0,1-8.33,1.33,25.25,25.25,0,0,1-8.27-1.36,21.57,21.57,0,0,1-7-3.92,19.35,19.35,0,0,1-4.85-6.13,19,19,0,0,1,0-16.32,18.46,18.46,0,0,1,5-6.14,22.64,22.64,0,0,1,7.17-3.82,27.34,27.34,0,0,1,8.44-1.31,24.13,24.13,0,0,1,8.16,1.39,21.55,21.55,0,0,1,6.9,3.94,19,19,0,0,1,4.75,6.16A18,18,0,0,1,251.48,145.64Zm-7.63,0a12.93,12.93,0,0,0-1.14-5.46,12.77,12.77,0,0,0-3.11-4.24,14.09,14.09,0,0,0-4.6-2.75,15.87,15.87,0,0,0-5.65-1,15.62,15.62,0,0,0-5.59,1,14.06,14.06,0,0,0-4.55,2.75,12.75,12.75,0,0,0-3.05,4.24,13.22,13.22,0,0,0-1.11,5.46,12.9,12.9,0,0,0,4.16,9.68,14.13,14.13,0,0,0,4.55,2.78,15.83,15.83,0,0,0,5.59,1,16.09,16.09,0,0,0,5.65-1,14.28,14.28,0,0,0,4.6-2.76,12.79,12.79,0,0,0,4.25-9.7Z"/><path class="cls-2" d="M296.7,138.42a10.83,10.83,0,0,1-1,4.67,10.45,10.45,0,0,1-2.8,3.61,13,13,0,0,1-4.42,2.35,19,19,0,0,1-5.84.83H269.06v10.77a2.07,2.07,0,0,0,.35,1.41,3,3,0,0,0,1.37.61v1.26H259.31v-1.26a4,4,0,0,0,1.29-.51c.28-.2.43-.72.43-1.56v-30a2.56,2.56,0,0,0-.28-1.36,2.45,2.45,0,0,0-1.44-.66v-1.26h22.38a23.69,23.69,0,0,1,6.37.78,14.44,14.44,0,0,1,4.7,2.23,9.86,9.86,0,0,1,2.93,3.48A10.27,10.27,0,0,1,296.7,138.42Zm-7.68.05a4.07,4.07,0,0,0-2.18-3.74c-1.44-.84-3.89-1.27-7.32-1.27H269.06v10.21h10.76q4.76,0,7-1.36A4.27,4.27,0,0,0,289,138.47Z"/><path class="cls-1" d="M197.47,111.64a4.86,4.86,0,0,1-3.77-1.8c-7-7.86-4.06-36.69-3.83-38.87.4-.9.62-1.42.62-1.42l-1.41.17-.11,0a1,1,0,0,0-.6.13c-29.83,3.89-34.61,23.06-27.76,28.26,10,7.61,21.31-11,26.7-21.71-.65,9.57-1.06,28.28,4.82,34.87a7,7,0,0,0,5.34,2.51,1,1,0,1,0,0-2.1Z"/><path class="cls-1" d="M129.06,115.77a1.05,1.05,0,0,1-.05-2.1c3.53-.17,5.15-5.94,5.89-10.75a72.31,72.31,0,0,0,.71-11.19,1,1,0,1,1,2.09,0c.06,2.41.38,23.64-8.59,24.08Z"/><path class="cls-1" d="M166.25,99.81a5.57,5.57,0,0,1-.82,0h.11C165.78,99.85,166,99.83,166.25,99.81Z"/><path class="cls-1" d="M191.15,85.36c0,3,0,6.07.27,9a69.87,69.87,0,0,0,9.37-7.24Z"/><path class="cls-1" d="M184.85,85.14c-5.35,8.81-12.17,16.8-19.31,16.8a10.11,10.11,0,0,1-6.2-2.2c-3.16-2.41-4.34-6.87-3.07-11.65a20.26,20.26,0,0,1,4.59-8.16l-29.79-5.35s-1.52-7.67-8.83-7.66c-.52-1.19-4.43-9.43-12.63-10.07a1,1,0,0,0-1.13,1,1.06,1.06,0,0,0,1,1.12c6.25.48,9.74,6.51,10.67,8.37-5,2.19-16.71,13.79-3.4,26l9.73-6.72s9.28,17.6,32.2,18.3c10.1.3,19.48-3.12,26.81-7.05A95.57,95.57,0,0,1,184.85,85.14Z"/><path class="cls-1" d="M115.92,67.5c-2.14-1.45-6.44-3.3-13.36-1.62a1,1,0,0,0,.49,2c5.75-1.39,9.36-.1,11.25,1C114.83,68.42,115.38,67.94,115.92,67.5Z"/><path class="cls-1" d="M130.48,95.2c-1.22,6.59-3.68,14.65-7.81,14.65h-.17a1,1,0,0,0-1.11,1,1,1,0,0,0,1,1.1h.31c5.52,0,8.29-8.32,9.63-15C131.66,96.34,131.05,95.77,130.48,95.2Z"/><path class="cls-1" d="M140.65,202.7s-8.38,17.26,7.16,27.7c0,0,13-10.16,6.06-26"/><path class="cls-2" d="M147.86,231.63l-.6-.4c-16.09-10.8-7.59-28.78-7.51-29l1.8.87c-.32.66-7.59,16.15,6.2,26,2.37-2.12,11-11.09,5.2-24.3l1.83-.81c7.18,16.33-6.21,27.05-6.35,27.16Z"/><path class="cls-1" d="M160.73,203.62s5.08,10.79-3.13,17.67c0,0-10.69-6.48-6.54-17.67"/><path class="cls-2" d="M157.7,222.51l-.62-.37c-.11-.07-11.34-7-7-18.87L152,204c-3.29,8.89,3.4,14.55,5.52,16.07,6.72-6.3,2.49-15.59,2.3-16l1.81-.85c.05.11,5.31,11.58-3.39,18.86Z"/><path class="cls-1" d="M133.06,203.62s-5.09,10.79,3.12,17.67c0,0,10.69-6.48,6.54-17.67"/><path class="cls-2" d="M136.09,222.51l-.55-.46c-8.7-7.28-3.44-18.75-3.39-18.86L134,204c-.19.4-4.42,9.69,2.3,16,2.13-1.52,8.81-7.18,5.52-16.07l1.88-.69c4.38,11.83-6.85,18.8-7,18.87Z"/><path class="cls-1" d="M140.65,190.32s-8.38,17.25,7.16,27.69c0,0,13-10.15,6.06-26"/><path class="cls-2" d="M147.86,219.25l-.6-.4c-16.09-10.81-7.59-28.79-7.51-29l1.8.88c-.32.66-7.59,16.14,6.2,26,2.37-2.13,11-11.09,5.2-24.31l1.83-.8c7.18,16.33-6.21,27-6.35,27.15Z"/><path class="cls-1" d="M130.63,188.15a24.29,24.29,0,0,0-3.46,21.16s17.66-4.19,17.24-20.72"/><path class="cls-2" d="M126.49,210.49l-.28-.89a25.14,25.14,0,0,1,3.63-22.08l1.57,1.25a23.56,23.56,0,0,0-3.56,19.3,27.81,27.81,0,0,0,7.57-3.78c5.47-3.92,8.16-9.19,8-15.67l2-.05c.44,17.14-17.83,21.67-18,21.71Z"/><path class="cls-1" d="M162.71,188.15a24.29,24.29,0,0,1,3.46,21.16s-17.66-4.19-17.24-20.72"/><path class="cls-2" d="M166.85,210.49l-.91-.21c-.18,0-18.45-4.57-18-21.71l2,.05c-.17,6.48,2.52,11.75,8,15.67a27.81,27.81,0,0,0,7.57,3.78,23.56,23.56,0,0,0-3.56-19.3l1.57-1.25a25.14,25.14,0,0,1,3.63,22.08Z"/><path class="cls-1" d="M125.73,192.05s4.48-15.81,21.19-15.81,20.77,15.81,20.77,15.81a14,14,0,0,1-12.41-3.46s-3.35,10.21-8.57,11.46c0,0-8.14-6.26-9.4-11.9C137.31,188.15,134.09,193.24,125.73,192.05Z"/><path class="cls-2" d="M146.48,201.14l-.38-.3c-.31-.23-6.93-5.38-9.2-10.73-1.71,1.58-5.27,3.78-11.31,2.93l-1.13-.16.31-1.1c0-.17,4.88-16.54,22.15-16.54s21.7,16.39,21.74,16.56l.25,1-1,.25a15,15,0,0,1-12.23-2.72c-1.16,3-4.26,9.64-8.77,10.72Zm-8.71-15.53.52,2.32c1,4.53,7,9.7,8.64,11,3.62-1.34,6.55-8.07,7.39-10.66l.5-1.52,1.15,1.11a12.83,12.83,0,0,0,10.42,3.38c-1.21-3.43-6-14-19.47-14-13.19,0-18.43,10.44-19.82,13.95,6.65.46,9.26-3.41,9.37-3.58Z"/><path class="cls-1" d="M78.46,202.7S70.07,220,85.62,230.4c0,0,13-10.16,6-26"/><path class="cls-2" d="M85.66,231.63l-.6-.4c-16.08-10.8-7.59-28.78-7.5-29l1.8.87c-.32.66-7.59,16.15,6.2,26,2.36-2.12,11-11.09,5.2-24.3l1.83-.81c7.17,16.33-6.22,27.05-6.35,27.16Z"/><path class="cls-1" d="M98.53,203.62s5.08,10.79-3.12,17.67c0,0-10.69-6.48-6.54-17.67"/><path class="cls-2" d="M95.5,222.51l-.61-.37c-.12-.07-11.34-7-7-18.87l1.88.69c-3.3,8.89,3.39,14.55,5.51,16.07,6.72-6.3,2.49-15.59,2.31-16l1.81-.85c0,.11,5.31,11.58-3.39,18.86Z"/><path class="cls-1" d="M70.86,203.62S65.78,214.41,74,221.29c0,0,10.69-6.48,6.54-17.67"/><path class="cls-2" d="M73.89,222.51l-.55-.46c-8.69-7.28-3.44-18.75-3.38-18.86l1.81.85c-.19.4-4.42,9.69,2.3,16,2.12-1.52,8.81-7.18,5.52-16.07l1.87-.69c4.39,11.83-6.84,18.8-7,18.87Z"/><path class="cls-1" d="M78.46,190.32S70.07,207.57,85.62,218c0,0,13-10.15,6-26"/><path class="cls-2" d="M85.66,219.25l-.6-.4c-16.08-10.81-7.59-28.79-7.5-29l1.8.88c-.32.66-7.59,16.14,6.2,26,2.36-2.13,11-11.09,5.2-24.31l1.83-.8c7.17,16.33-6.22,27-6.35,27.15Z"/><path class="cls-1" d="M68.43,188.15A24.29,24.29,0,0,0,65,209.31s17.67-4.19,17.25-20.72"/><path class="cls-2" d="M64.3,210.49,64,209.6a25.11,25.11,0,0,1,3.63-22.08l1.57,1.25a23.52,23.52,0,0,0-3.56,19.3,27.79,27.79,0,0,0,7.56-3.78c5.47-3.92,8.16-9.19,8-15.67l2-.05c.43,17.14-17.83,21.67-18,21.71Z"/><path class="cls-1" d="M100.52,188.15A24.29,24.29,0,0,1,104,209.31s-17.67-4.19-17.25-20.72"/><path class="cls-2" d="M104.65,210.49l-.9-.21c-.19,0-18.45-4.57-18-21.71l2,.05c-.16,6.48,2.53,11.75,8,15.67a27.79,27.79,0,0,0,7.56,3.78,23.52,23.52,0,0,0-3.56-19.3l1.57-1.25a25.11,25.11,0,0,1,3.63,22.08Z"/><path class="cls-1" d="M63.54,192.05S68,176.24,84.73,176.24s20.77,15.81,20.77,15.81a14,14,0,0,1-12.42-3.46s-3.34,10.21-8.56,11.46c0,0-8.15-6.26-9.4-11.9C75.12,188.15,71.89,193.24,63.54,192.05Z"/><path class="cls-2" d="M84.29,201.14l-.38-.3c-.31-.23-6.94-5.38-9.2-10.73C73,191.69,69.43,193.89,63.4,193l-1.14-.16.32-1.1c0-.17,4.88-16.54,22.15-16.54s21.69,16.39,21.73,16.56l.25,1-1,.25a15,15,0,0,1-12.22-2.72c-1.17,3-4.26,9.64-8.77,10.72Zm-8.72-15.53.52,2.32c1,4.53,7,9.7,8.64,11,3.63-1.34,6.55-8.07,7.4-10.66l.5-1.52,1.15,1.11a12.7,12.7,0,0,0,10.42,3.39c-1.21-3.43-6-14-19.47-14-13.2,0-18.44,10.44-19.83,13.95,6.66.46,9.26-3.41,9.38-3.58Z"/><path class="cls-1" d="M205.15,202.7s-8.39,17.26,7.16,27.7c0,0,13-10.16,6.05-26"/><path class="cls-2" d="M212.35,231.63l-.6-.4c-16.08-10.8-7.59-28.78-7.5-29l1.8.87c-.32.66-7.6,16.15,6.19,26,2.37-2.12,11-11.09,5.2-24.3l1.83-.81c7.18,16.33-6.21,27.05-6.35,27.16Z"/><path class="cls-1" d="M225.22,203.62s5.08,10.79-3.13,17.67c0,0-10.68-6.48-6.53-17.67"/><path class="cls-2" d="M222.19,222.51l-.61-.37c-.12-.07-11.35-7-7-18.87l1.87.69c-3.29,8.89,3.4,14.55,5.52,16.07,6.72-6.3,2.49-15.59,2.3-16l1.81-.85c.06.11,5.31,11.58-3.38,18.86Z"/><path class="cls-1" d="M197.55,203.62s-5.08,10.79,3.12,17.67c0,0,10.69-6.48,6.54-17.67"/><path class="cls-2" d="M200.58,222.51l-.55-.46c-8.7-7.28-3.44-18.75-3.39-18.86l1.81.85c-.18.4-4.41,9.69,2.31,16,2.12-1.52,8.81-7.18,5.51-16.07l1.88-.69c4.38,11.83-6.85,18.8-7,18.87Z"/><path class="cls-1" d="M205.15,190.32s-8.39,17.25,7.16,27.69c0,0,13-10.15,6.05-26"/><path class="cls-2" d="M212.35,219.25l-.6-.4c-16.08-10.81-7.59-28.79-7.5-29l1.8.88c-.32.66-7.6,16.14,6.19,26,2.37-2.13,11-11.09,5.2-24.31l1.83-.8c7.18,16.33-6.21,27-6.35,27.15Z"/><path class="cls-1" d="M195.12,188.15a24.29,24.29,0,0,0-3.46,21.16s17.66-4.19,17.25-20.72"/><path class="cls-2" d="M191,210.49l-.27-.89a25.07,25.07,0,0,1,3.63-22.08l1.56,1.25a23.61,23.61,0,0,0-3.56,19.3,27.81,27.81,0,0,0,7.57-3.78c5.47-3.92,8.16-9.19,8-15.67l2-.05c.43,17.14-17.83,21.67-18,21.71Z"/><path class="cls-1" d="M227.2,188.15a24.29,24.29,0,0,1,3.46,21.16s-17.66-4.19-17.24-20.72"/><path class="cls-2" d="M231.34,210.49l-.91-.21c-.18,0-18.44-4.57-18-21.71l2,.05c-.17,6.48,2.52,11.75,8,15.67a28,28,0,0,0,7.57,3.78,23.52,23.52,0,0,0-3.56-19.3l1.57-1.25a25.11,25.11,0,0,1,3.63,22.08Z"/><path class="cls-1" d="M190.23,192.05s4.47-15.81,21.18-15.81,20.77,15.81,20.77,15.81a14,14,0,0,1-12.41-3.46s-3.34,10.21-8.57,11.46c0,0-8.14-6.26-9.4-11.9C201.8,188.15,198.58,193.24,190.23,192.05Z"/><path class="cls-2" d="M211,201.14l-.38-.3c-.31-.23-6.93-5.38-9.19-10.73-1.71,1.58-5.28,3.78-11.32,2.93l-1.13-.16.31-1.1c.05-.17,4.89-16.54,22.15-16.54s21.7,16.39,21.74,16.56l.25,1-1,.25a15,15,0,0,1-12.22-2.72c-1.17,3-4.26,9.64-8.77,10.72Zm-8.71-15.53.52,2.32c1,4.53,7,9.7,8.64,11,3.62-1.34,6.55-8.07,7.4-10.66l.5-1.52,1.14,1.11a12.85,12.85,0,0,0,10.43,3.38c-1.21-3.43-6-14-19.48-14-13.19,0-18.43,10.44-19.82,13.95,6.65.48,9.26-3.41,9.37-3.58Z"/></g></g></svg>